<svg xmlns="http://www.w3.org/2000/svg" width="960" height="640" viewBox="0 0 960 640" role="img" aria-labelledby="title desc">
  <title id="title">Deckplating workspace activation screen with demo data</title>
  <desc id="desc">Scrubbed representative screenshot showing the managed pilot activation form sequence.</desc>
  <rect width="960" height="640" fill="#eef2f5"/>
  <rect x="250" y="28" width="460" height="584" rx="28" fill="#101c28"/>
  <rect x="270" y="52" width="420" height="536" rx="20" fill="#f8fbfd"/>
  <text x="300" y="92" font-family="Arial, sans-serif" font-size="14" font-weight="700" fill="#255a82">DECKPLATING</text>
  <text x="300" y="124" font-family="Arial, sans-serif" font-size="30" font-weight="800" fill="#17212b">Workspace setup</text>
  <rect x="300" y="148" width="360" height="82" rx="10" fill="#eef6fb" stroke="#bdd4e7"/>
  <text x="318" y="176" font-family="Arial, sans-serif" font-size="15" font-weight="700" fill="#17324d">Managed pilot sequence</text>
  <text x="318" y="202" font-family="Arial, sans-serif" font-size="14" fill="#5f6d7a">Setup code, map center, local passphrase,</text>
  <text x="318" y="222" font-family="Arial, sans-serif" font-size="14" fill="#5f6d7a">then local roster and mapping.</text>
  <rect x="300" y="250" width="360" height="48" rx="10" fill="#17324d"/>
  <text x="363" y="280" font-family="Arial, sans-serif" font-size="16" font-weight="800" fill="#fff">Activate workspace</text>
  <text x="300" y="328" font-family="Arial, sans-serif" font-size="13" font-weight="700" fill="#5f6d7a">ONE-TIME SETUP CODE</text>
  <rect x="300" y="340" width="360" height="44" rx="8" fill="#fff" stroke="#d6dee6"/>
  <text x="318" y="368" font-family="Arial, sans-serif" font-size="16" fill="#94a0ac">Do not screenshot real codes</text>
  <text x="300" y="414" font-family="Arial, sans-serif" font-size="13" font-weight="700" fill="#5f6d7a">INSTALLATION NAME</text>
  <rect x="300" y="426" width="360" height="44" rx="8" fill="#fff" stroke="#d6dee6"/>
  <text x="318" y="454" font-family="Arial, sans-serif" font-size="16" fill="#17212b">Demo Naval Station</text>
  <rect x="300" y="488" width="174" height="44" rx="8" fill="#fff" stroke="#d6dee6"/>
  <text x="326" y="516" font-family="Arial, sans-serif" font-size="15" font-weight="700" fill="#17324d">Find installation</text>
  <rect x="486" y="488" width="174" height="44" rx="8" fill="#17324d"/>
  <text x="522" y="516" font-family="Arial, sans-serif" font-size="15" font-weight="800" fill="#fff">Activate</text>
</svg>
