<svg xmlns="http://www.w3.org/2000/svg" width="960" height="640" viewBox="0 0 960 640" role="img" aria-labelledby="title desc">
  <title id="title">Deckplating check-in screen with demo data</title>
  <desc id="desc">Scrubbed representative screenshot showing Locate Me, unit selection, and check-in confirmation.</desc>
  <rect width="960" height="640" fill="#eef2f5"/>
  <rect x="250" y="28" width="460" height="584" rx="28" fill="#101c28"/>
  <rect x="270" y="52" width="420" height="536" rx="20" fill="#f8fbfd"/>
  <rect x="270" y="52" width="420" height="38" rx="20" fill="#eef8f0"/>
  <text x="296" y="76" font-family="Arial, sans-serif" font-size="13" font-weight="700" fill="#287a3e">Online and synced</text>
  <text x="300" y="124" font-family="Arial, sans-serif" font-size="14" font-weight="700" fill="#255a82">CHECK IN</text>
  <text x="300" y="158" font-family="Arial, sans-serif" font-size="30" font-weight="800" fill="#17212b">Demo Chaplain</text>
  <rect x="524" y="128" width="136" height="44" rx="8" fill="#fff" stroke="#d6dee6"/>
  <text x="558" y="156" font-family="Arial, sans-serif" font-size="15" font-weight="700" fill="#17324d">Locate Me</text>
  <rect x="300" y="200" width="360" height="236" rx="12" fill="#fff" stroke="#d6dee6"/>
  <text x="318" y="228" font-family="Arial, sans-serif" font-size="13" font-weight="700" fill="#255a82">DEMO AREA</text>
  <text x="318" y="260" font-family="Arial, sans-serif" font-size="26" font-weight="800" fill="#17212b">Public Building 12</text>
  <text x="318" y="286" font-family="Arial, sans-serif" font-size="15" fill="#5f6d7a">24 meters away</text>
  <rect x="318" y="310" width="324" height="48" rx="8" fill="#fffaf0" stroke="#ead6a0"/>
  <text x="336" y="340" font-family="Arial, sans-serif" font-size="16" font-weight="700" fill="#17212b">Demo Department</text>
  <rect x="318" y="370" width="324" height="48" rx="8" fill="#eef6fb" stroke="#bdd4e7"/>
  <text x="336" y="400" font-family="Arial, sans-serif" font-size="16" font-weight="700" fill="#17212b">Demo Division</text>
  <rect x="300" y="456" width="360" height="50" rx="10" fill="#17324d"/>
  <text x="446" y="487" font-family="Arial, sans-serif" font-size="16" font-weight="800" fill="#fff">Check In</text>
  <rect x="300" y="526" width="170" height="42" rx="8" fill="#fff" stroke="#d6dee6"/>
  <text x="320" y="553" font-family="Arial, sans-serif" font-size="14" font-weight="700" fill="#17324d">Manual unit lookup</text>
</svg>
